<svg width="689" height="766" viewBox="0 0 789 966" fill="none" xmlns="http://www.w3.org/2000/svg">
<path d="M0 60C0 26.8629 26.8629 0 60 0H789V906C789 939.137 762.137 966 729 966H0V60Z" fill="url(#paint0_linear_27_44)"/>
<path d="M278.262 526.899V495.97L290.805 478.866L298.93 495.97L309.762 478.866L314.181 492.834L323.873 443.09H331.569L338.981 491.409V492.834H345.395L348.878 460.479L349.645 453.353L351.593 435.251L353.234 420H362.927L364.896 435.251L368.155 460.479L372.334 492.834V526.899H381.171V460.479L398.987 446.226V526.899H407.824V439.669H410.675V435.251H414.381V430.69L420.795 423.563L427.921 430.69V435.251H431.627V439.669H435.333V526.899H440.036H470.681V509.938H498.902V480.291H510.02L521.137 444.658H544.655L551.639 508.512H583.281V526.899H521.137H498.902H470.681H440.036H435.333V439.669H431.627V435.251H427.921V430.69L420.795 423.563L414.381 430.69V435.251H410.675V439.669H407.824V526.899H398.987V446.226L381.171 460.479V526.899H372.334H278.262Z" fill="#6B372A"/>
<path d="M474.672 455.205L470.681 508.512H482.226L478.378 455.205H474.672Z" fill="#6B372A"/>
<path d="M485.077 508.512L487.927 455.205H491.491L496.622 508.512H485.077Z" fill="#6B372A"/>
<path d="M570.453 480.291L564.039 506.945H583.281L576.012 480.291H570.453Z" fill="#6B372A"/>
<path d="M65.8894 526.899H152.977V464.328H154.402V460.479H158.108V456.488H169.368V460.479H173.074V464.328H175.069V526.899H182.766V438.102L203.718 452.212V526.899H210.132V462.617L228.376 472.309V526.899H238.781V435.251H263.439V526.899H278.262M278.262 526.899V495.97L290.805 478.866L298.93 495.97L309.762 478.866L314.181 492.834M278.262 526.899H372.334M470.681 526.899H440.036H435.333V439.669H431.627V435.251H427.921V430.69L420.795 423.563L414.381 430.69V435.251H410.675V439.669H407.824V526.899H398.987V446.226L381.171 460.479V526.899H372.334M470.681 526.899V509.938H498.902V526.899V480.291H510.02M470.681 526.899H521.137M372.334 492.834V526.899M372.334 492.834H345.395M372.334 492.834L368.155 460.479M314.181 492.834H317.744H326.795H335.845H338.981M314.181 492.834L323.873 443.09H331.569L338.981 491.409V492.834M338.981 492.834H345.395M345.395 492.834L348.878 460.479M351.593 435.251L353.234 420H362.927L364.896 435.251M351.593 435.251H364.896M351.593 435.251L349.645 453.353M364.896 435.251L368.155 460.479M349.645 453.353H366.917L368.155 460.479M349.645 453.353L348.878 460.479M368.155 460.479H348.878M521.137 526.899V508.512M521.137 526.899H583.281M510.02 480.291H521.137V508.512M510.02 480.291L521.137 444.658H544.655L551.639 508.512M551.639 508.512H521.137M551.639 508.512H583.281V526.899M583.281 526.899H706.144M470.681 508.512L474.672 455.205H478.378L482.226 508.512H470.681ZM487.927 455.205L485.077 508.512H496.622L491.491 455.205H487.927ZM564.039 506.945L570.453 480.291H576.012L583.281 506.945H564.039Z" stroke="#47251C" stroke-width="2.56558"/>
<path d="M262.098 519.572C259.596 521.585 257.249 522.748 262.265 525.674L269.287 525.674C274.637 521.996 271.544 518.819 267.448 518.819C266.863 516.562 263.101 515.392 262.098 519.572Z" fill="#904937" fill-opacity="0.58" stroke="#47251C" stroke-width="0.501561"/>
<path d="M129.828 520.142C127.326 522.156 124.979 523.319 129.995 526.244L137.017 526.244C142.367 522.566 139.274 519.39 135.178 519.39C134.593 517.133 130.831 515.962 129.828 520.142Z" fill="#904937" fill-opacity="0.58" stroke="#47251C" stroke-width="0.501561"/>
<path d="M118.289 518.576C115.399 520.899 112.687 522.241 118.482 525.616L126.594 525.616C132.775 521.373 129.202 517.708 124.47 517.708C123.794 515.104 119.448 513.754 118.289 518.576Z" fill="#904937" fill-opacity="0.58" stroke="#47251C" stroke-width="0.501561"/>
<path d="M447.021 516.352C442.755 519.785 438.754 521.768 447.306 526.757L459.278 526.757C468.4 520.485 463.127 515.069 456.143 515.069C455.145 511.221 448.731 509.225 447.021 516.352Z" fill="#904937" fill-opacity="0.58" stroke="#47251C" stroke-width="0.855193"/>
<path d="M594.555 523.66C593.777 524.306 593.047 524.678 594.607 525.616L596.791 525.616C598.455 524.437 597.493 523.419 596.219 523.419C596.037 522.696 594.867 522.321 594.555 523.66Z" fill="#904937" fill-opacity="0.58" stroke="#47251C" stroke-width="0.142532"/>
<path d="M596.798 523.074C595.798 523.913 594.859 524.397 596.865 525.616L599.673 525.616C601.813 524.084 600.576 522.76 598.938 522.76C598.704 521.82 597.199 521.332 596.798 523.074Z" fill="#904937" fill-opacity="0.58" stroke="#47251C" stroke-width="0.142532"/>
<path d="M459.136 515.211V493.261L461.844 489.128" stroke="#47251C" stroke-width="0.855193"/>
<path d="M459.136 493.119V485.85" stroke="#47251C" stroke-width="0.855193"/>
<path d="M458.993 493.119L456.285 489.841" stroke="#47251C" stroke-width="0.855193"/>
<path d="M318.742 468.318H335.988" stroke="#47251C" stroke-width="2.56558"/>
<line x1="154.117" y1="528.039" x2="173.786" y2="528.039" stroke="#47251C" stroke-width="0.285064"/>
<path d="M154.117 465.183H173.786V528.182H154.117V465.183Z" fill="#47251C"/>
<path d="M154.117 461.477H173.786V524.476H154.117V461.477Z" fill="#47251C"/>
<path d="M159.248 457.486H169.225V520.485H159.248V457.486Z" fill="#47251C"/>
<rect x="154.687" y="466.323" width="2.85064" height="4.8461" fill="#904937"/>
<rect x="162.669" y="466.323" width="2.85064" height="4.8461" fill="#904937"/>
<rect x="170.651" y="466.323" width="2.85064" height="4.8461" fill="#DDDDDD"/>
<rect x="154.687" y="472.879" width="2.85064" height="4.8461" fill="#904937"/>
<rect x="162.669" y="472.879" width="2.85064" height="4.8461" fill="#DDDDDD"/>
<rect x="170.651" y="472.879" width="2.85064" height="4.8461" fill="#904937"/>
<rect x="154.687" y="492.549" width="2.85064" height="4.8461" fill="#904937"/>
<rect x="162.669" y="492.549" width="2.85064" height="4.8461" fill="#904937"/>
<rect x="170.651" y="492.549" width="2.85064" height="4.8461" fill="#904937"/>
<rect x="154.687" y="479.436" width="2.85064" height="4.8461" fill="#D9D9D9"/>
<rect x="162.669" y="479.436" width="2.85064" height="4.8461" fill="#904937"/>
<rect x="170.651" y="479.436" width="2.85064" height="4.8461" fill="#904937"/>
<rect x="154.687" y="499.105" width="2.85064" height="4.8461" fill="#D9D9D9"/>
<rect x="162.669" y="499.105" width="2.85064" height="4.8461" fill="#904937"/>
<rect x="170.651" y="499.105" width="2.85064" height="4.8461" fill="#904937"/>
<rect x="154.687" y="512.218" width="2.85064" height="4.8461" fill="#904937"/>
<rect x="162.669" y="512.218" width="2.85064" height="4.8461" fill="#904937"/>
<rect x="170.651" y="512.218" width="2.85064" height="4.8461" fill="#904937"/>
<rect x="154.687" y="485.992" width="2.85064" height="4.8461" fill="#904937"/>
<rect x="162.669" y="485.993" width="2.85064" height="4.8461" fill="#D9D9D9"/>
<rect x="170.651" y="485.993" width="2.85064" height="4.8461" fill="#904937"/>
<rect x="154.687" y="505.662" width="2.85064" height="4.8461" fill="#904937"/>
<rect x="162.669" y="505.662" width="2.85064" height="4.8461" fill="#904937"/>
<rect x="170.651" y="505.662" width="2.85064" height="4.8461" fill="#D9D9D9"/>
<rect x="154.687" y="518.775" width="2.85064" height="4.8461" fill="#904937"/>
<rect x="162.669" y="518.775" width="2.85064" height="4.8461" fill="#904937"/>
<rect x="170.651" y="518.775" width="2.85064" height="4.8461" fill="#904937"/>
<path d="M184.049 452.925H203.433V528.182H184.049V452.925Z" fill="#47251C"/>
<path d="M183.764 439.669L193.313 446.083L203.576 453.352H183.764V439.669Z" fill="#47251C"/>
<path d="M399.026 460.075H382.292V528.182H399.026V460.075Z" fill="#47251C"/>
<path d="M398.132 447.794L390.72 453.067L382.168 460.462H399.272L398.132 447.794Z" fill="#47251C"/>
<path d="M434.524 460.075H408.585V528.182H434.524V460.075Z" fill="#47251C"/>
<path d="M427.351 430.69L421.128 424.459L415.378 430.69L411.102 436.819L408.585 440.81V460.075L434.905 460.462L434.524 440.81L430.914 436.819L427.351 430.69Z" fill="#47251C"/>
<path d="M210.521 471.951H227.255V528.182H210.521V471.951Z" fill="#47251C"/>
<path d="M210.275 462.047L218.519 466.839L227.378 472.271H210.275V462.047Z" fill="#47251C"/>
<rect x="211.7" y="473.449" width="2.85064" height="4.8461" fill="#904937"/>
<rect x="217.401" y="473.449" width="2.85064" height="4.8461" fill="#904937"/>
<rect x="223.103" y="473.449" width="2.85064" height="4.8461" fill="#DDDDDD"/>
<rect x="211.7" y="480.861" width="2.85064" height="4.8461" fill="#904937"/>
<rect x="217.401" y="480.861" width="2.85064" height="4.8461" fill="#904937"/>
<rect x="223.103" y="480.861" width="2.85064" height="4.8461" fill="#DDDDDD"/>
<rect x="211.7" y="488.273" width="2.85064" height="4.8461" fill="#904937"/>
<rect x="217.401" y="488.273" width="2.85064" height="4.8461" fill="#904937"/>
<rect x="223.103" y="488.273" width="2.85064" height="4.8461" fill="#DDDDDD"/>
<rect x="211.7" y="498.535" width="2.85064" height="4.8461" fill="#904937"/>
<rect x="217.401" y="498.535" width="2.85064" height="4.8461" fill="#904937"/>
<rect x="223.103" y="498.535" width="2.85064" height="4.8461" fill="#DDDDDD"/>
<rect x="211.7" y="505.947" width="2.85064" height="4.8461" fill="#904937"/>
<rect x="217.401" y="505.947" width="2.85064" height="4.8461" fill="#904937"/>
<rect x="223.103" y="505.947" width="2.85064" height="4.8461" fill="#DDDDDD"/>
<rect x="211.7" y="513.358" width="2.85064" height="4.8461" fill="#904937"/>
<rect x="217.401" y="513.358" width="2.85064" height="4.8461" fill="#904937"/>
<rect x="223.103" y="513.358" width="2.85064" height="4.8461" fill="#DDDDDD"/>
<rect x="183.764" y="452.355" width="18.8143" height="1.71039" fill="#904937"/>
<rect x="409.25" y="441.808" width="18.8143" height="1.71039" fill="#904937"/>
<rect x="409.25" y="454.635" width="18.8143" height="1.71039" fill="#904937"/>
<rect x="409.25" y="473.449" width="18.8143" height="1.71039" fill="#ECECEC"/>
<rect x="409.25" y="485.422" width="18.8143" height="1.71039" fill="#ECECEC"/>
<rect x="409.25" y="497.965" width="18.8143" height="1.71039" fill="#ECECEC"/>
<rect x="409.25" y="510.793" width="18.8143" height="1.71039" fill="#ECECEC"/>
<rect x="183.764" y="470.599" width="18.8143" height="1.71039" fill="#D9D9D9"/>
<rect x="183.764" y="488.843" width="18.8143" height="1.71039" fill="#D9D9D9"/>
<rect x="183.764" y="507.087" width="18.8143" height="1.71039" fill="#904937"/>
<rect x="183.764" y="456.631" width="18.8143" height="1.71039" fill="#D9D9D9"/>
<rect x="409.25" y="446.083" width="18.8143" height="1.71039" fill="#D9D9D9"/>
<rect x="409.25" y="458.911" width="18.8143" height="1.71039" fill="#D9D9D9"/>
<rect x="409.25" y="477.726" width="18.8143" height="1.71039" fill="#904937"/>
<rect x="409.25" y="489.698" width="18.8143" height="1.71039" fill="#904937"/>
<rect x="409.25" y="502.241" width="18.8143" height="1.71039" fill="#D9D9D9"/>
<rect x="409.25" y="515.069" width="18.8143" height="1.71039" fill="#904937"/>
<rect x="183.764" y="474.875" width="18.8143" height="1.71039" fill="#904937"/>
<rect x="183.764" y="493.119" width="18.8143" height="1.71039" fill="#904937"/>
<rect x="183.764" y="511.363" width="18.8143" height="1.71039" fill="#904937"/>
<rect x="183.764" y="460.907" width="18.8143" height="1.71039" fill="#904937"/>
<rect x="409.25" y="450.359" width="18.8143" height="1.71039" fill="#904937"/>
<rect x="409.25" y="463.187" width="18.8143" height="1.71039" fill="#904937"/>
<rect x="409.25" y="482.001" width="18.8143" height="1.71039" fill="#ECECEC"/>
<rect x="409.25" y="493.974" width="18.8143" height="1.71039" fill="#ECECEC"/>
<rect x="409.25" y="506.517" width="18.8143" height="1.71039" fill="#ECECEC"/>
<rect x="409.25" y="519.345" width="18.8143" height="1.71039" fill="#ECECEC"/>
<rect x="183.764" y="479.151" width="18.8143" height="1.71039" fill="#D9D9D9"/>
<rect x="183.764" y="497.395" width="18.8143" height="1.71039" fill="#D9D9D9"/>
<rect x="183.764" y="515.639" width="18.8143" height="1.71039" fill="#904937"/>
<rect x="183.764" y="465.183" width="18.8143" height="1.71039" fill="#904937"/>
<rect x="183.764" y="483.427" width="18.8143" height="1.71039" fill="#904937"/>
<rect x="183.764" y="501.671" width="18.8143" height="1.71039" fill="#904937"/>
<rect x="183.764" y="519.915" width="18.8143" height="1.71039" fill="#904937"/>
<rect x="239.351" y="436.106" width="23.3753" height="92.0758" fill="#4C231A"/>
<rect x="240.206" y="442.093" width="2.85064" height="4.8461" fill="#DDDDDD"/>
<rect x="246.478" y="442.093" width="2.85064" height="4.8461" fill="#DDDDDD"/>
<rect x="252.749" y="442.093" width="2.85064" height="4.8461" fill="#DDDDDD"/>
<rect x="382.169" y="463.757" width="2.85064" height="8.26687" fill="#DDDDDD"/>
<rect x="388.44" y="463.757" width="2.85064" height="8.26687" fill="#DDDDDD"/>
<rect x="394.711" y="463.757" width="2.85064" height="8.26687" fill="#DDDDDD"/>
<rect x="431.199" y="441.808" width="2.85064" height="8.26687" fill="#DDDDDD"/>
<rect x="412.385" y="437.817" width="2.85064" height="17.674" transform="rotate(-90 412.385 437.817)" fill="#DDDDDD"/>
<rect x="431.199" y="456.061" width="2.85064" height="8.26687" fill="#DDDDDD"/>
<path d="M391.86 453.21L398.132 448.649V459.481H391.86H383.594L391.86 453.21Z" fill="#904937"/>
<path d="M420.937 424.276L427.351 429.977V433.968H419.94H415.094V429.977L420.937 424.276Z" fill="#904937"/>
<rect x="430.629" y="473.449" width="2.85064" height="8.26687" fill="#DDDDDD"/>
<rect x="430.629" y="485.422" width="2.85064" height="8.26687" fill="#DDDDDD"/>
<rect x="430.629" y="497.965" width="2.85064" height="8.26687" fill="#DDDDDD"/>
<rect x="430.629" y="510.793" width="2.85064" height="8.26687" fill="#DDDDDD"/>
<rect x="382.169" y="475.16" width="2.85064" height="8.26687" fill="#DDDDDD"/>
<rect x="388.44" y="475.16" width="2.85064" height="8.26687" fill="#DDDDDD"/>
<rect x="394.711" y="475.16" width="2.85064" height="8.26687" fill="#DDDDDD"/>
<rect x="382.169" y="486.562" width="2.85064" height="8.26687" fill="#DDDDDD"/>
<rect x="388.44" y="486.562" width="2.85064" height="8.26687" fill="#DDDDDD"/>
<rect x="394.711" y="486.562" width="2.85064" height="8.26687" fill="#DDDDDD"/>
<rect x="382.169" y="497.965" width="2.85064" height="8.26687" fill="#DDDDDD"/>
<rect x="388.44" y="497.965" width="2.85064" height="8.26687" fill="#DDDDDD"/>
<rect x="394.711" y="497.965" width="2.85064" height="8.26687" fill="#DDDDDD"/>
<rect x="382.169" y="509.368" width="2.85064" height="8.26687" fill="#DDDDDD"/>
<rect x="388.44" y="509.367" width="2.85064" height="8.26687" fill="#DDDDDD"/>
<rect x="394.711" y="509.367" width="2.85064" height="8.26687" fill="#DDDDDD"/>
<rect x="240.206" y="463.472" width="2.85064" height="4.8461" fill="#DDDDDD"/>
<rect x="246.478" y="463.472" width="2.85064" height="4.8461" fill="#DDDDDD"/>
<rect x="252.749" y="463.472" width="2.85064" height="4.8461" fill="#DDDDDD"/>
<rect x="240.206" y="484.852" width="2.85064" height="4.8461" fill="#DDDDDD"/>
<rect x="246.478" y="484.852" width="2.85064" height="4.8461" fill="#DDDDDD"/>
<rect x="252.749" y="484.852" width="2.85064" height="4.8461" fill="#DDDDDD"/>
<rect x="240.206" y="506.232" width="2.85064" height="4.8461" fill="#DDDDDD"/>
<rect x="246.478" y="506.232" width="2.85064" height="4.8461" fill="#DDDDDD"/>
<rect x="252.749" y="506.232" width="2.85064" height="4.8461" fill="#DDDDDD"/>
<rect x="240.206" y="449.219" width="2.85064" height="4.8461" fill="#DDDDDD"/>
<rect x="246.478" y="449.219" width="2.85064" height="4.8461" fill="#DDDDDD"/>
<rect x="252.749" y="449.219" width="2.85064" height="4.8461" fill="#DDDDDD"/>
<rect x="240.206" y="470.599" width="2.85064" height="4.8461" fill="#DDDDDD"/>
<rect x="246.478" y="470.599" width="2.85064" height="4.8461" fill="#DDDDDD"/>
<rect x="252.749" y="470.599" width="2.85064" height="4.8461" fill="#DDDDDD"/>
<rect x="240.206" y="491.979" width="2.85064" height="4.8461" fill="#DDDDDD"/>
<rect x="246.478" y="491.979" width="2.85064" height="4.8461" fill="#DDDDDD"/>
<rect x="252.749" y="491.979" width="2.85064" height="4.8461" fill="#DDDDDD"/>
<rect x="240.206" y="513.358" width="2.85064" height="4.8461" fill="#DDDDDD"/>
<rect x="246.478" y="513.358" width="2.85064" height="4.8461" fill="#DDDDDD"/>
<rect x="252.749" y="513.358" width="2.85064" height="4.8461" fill="#DDDDDD"/>
<rect x="240.206" y="456.346" width="2.85064" height="4.8461" fill="#DDDDDD"/>
<rect x="246.478" y="456.346" width="2.85064" height="4.8461" fill="#DDDDDD"/>
<rect x="252.749" y="456.346" width="2.85064" height="4.8461" fill="#DDDDDD"/>
<rect x="240.206" y="477.726" width="2.85064" height="4.8461" fill="#DDDDDD"/>
<rect x="246.478" y="477.726" width="2.85064" height="4.8461" fill="#DDDDDD"/>
<rect x="252.749" y="477.726" width="2.85064" height="4.8461" fill="#DDDDDD"/>
<rect x="240.206" y="499.105" width="2.85064" height="4.8461" fill="#DDDDDD"/>
<rect x="246.478" y="499.105" width="2.85064" height="4.8461" fill="#DDDDDD"/>
<rect x="252.749" y="499.105" width="2.85064" height="4.8461" fill="#DDDDDD"/>
<rect x="240.206" y="520.485" width="2.85064" height="4.8461" fill="#DDDDDD"/>
<rect x="246.478" y="520.485" width="2.85064" height="4.8461" fill="#DDDDDD"/>
<rect x="252.749" y="520.485" width="2.85064" height="4.8461" fill="#DDDDDD"/>
<rect x="262.727" y="442.093" width="83.2388" height="3.42077" transform="rotate(90 262.727 442.093)" fill="#904937"/>
<path d="M321.735 452.212H332.852" stroke="#47251C" stroke-width="2.56558"/>
<path d="M319.739 464.185H334.99" stroke="#47251C" stroke-width="2.56558"/>
<circle cx="313.325" cy="502.954" r="4.98863" fill="#23120E"/>
<circle cx="335.56" cy="502.954" r="4.98863" fill="#23120E"/>
<circle cx="357.795" cy="502.954" r="4.98863" fill="#23120E"/>
<mask id="path-166-inside-1_27_44" fill="white">
<path d="M285.532 504.237H303.776V525.616H285.532V504.237Z"/>
</mask>
<path d="M285.532 504.237H303.776V525.616H285.532V504.237Z" fill="#C0978D" fill-opacity="0.78"/>
<path d="M285.532 504.237V501.671H282.966V504.237H285.532ZM303.776 504.237H306.341V501.671H303.776V504.237ZM285.532 506.802H303.776V501.671H285.532V506.802ZM301.21 504.237V525.616H306.341V504.237H301.21ZM288.097 525.616V504.237H282.966V525.616H288.097Z" fill="#47251C" mask="url(#path-166-inside-1_27_44)"/>
<rect x="311.187" y="511.933" width="13.6831" height="6.84155" fill="#DDDDDD"/>
<rect x="331.427" y="511.933" width="13.6831" height="6.84155" fill="#904937"/>
<rect x="351.667" y="511.933" width="13.6831" height="6.84155" fill="#DDDDDD"/>
<rect x="474.529" y="513.073" width="4.56103" height="10.2623" fill="#904937"/>
<rect x="482.511" y="513.073" width="4.56103" height="10.2623" fill="#DDDDDD"/>
<rect x="490.493" y="513.073" width="4.56103" height="10.2623" fill="#904937"/>
<rect x="503.036" y="483.997" width="4.56103" height="5.70129" fill="#904937"/>
<rect x="511.873" y="483.997" width="4.56103" height="5.70129" fill="#DDDDDD"/>
<rect x="503.036" y="493.119" width="4.56103" height="5.70129" fill="#DDDDDD"/>
<rect x="511.873" y="493.119" width="4.56103" height="5.70129" fill="#904937"/>
<rect x="503.036" y="502.241" width="4.56103" height="5.70129" fill="#904937"/>
<rect x="511.873" y="502.241" width="4.56103" height="5.70129" fill="#DDDDDD"/>
<rect x="529.262" y="515.354" width="4.56103" height="5.70129" fill="#904937"/>
<rect x="538.099" y="515.354" width="4.56103" height="5.70129" fill="#DDDDDD"/>
<rect x="546.08" y="515.354" width="4.56103" height="5.70129" fill="#904937"/>
<rect x="554.918" y="515.354" width="4.56103" height="5.70129" fill="#DDDDDD"/>
<rect x="562.899" y="515.354" width="4.56103" height="5.70129" fill="#904937"/>
<rect x="571.736" y="515.354" width="4.56103" height="5.70129" fill="#DDDDDD"/>
<rect x="503.036" y="511.363" width="4.56103" height="5.70129" fill="#DDDDDD"/>
<rect x="511.873" y="511.363" width="4.56103" height="5.70129" fill="#904937"/>
<rect x="503.036" y="517.064" width="4.56103" height="5.70129" fill="#DDDDDD"/>
<rect x="511.873" y="517.064" width="4.56103" height="5.70129" fill="#904937"/>
<rect x="319.739" y="464.327" width="14.5383" height="3.13571" fill="#23120E"/>
<path d="M348.824 472.879H368.903L369.626 477.44H348.246L348.824 472.879Z" fill="#23120E"/>
<path d="M487.003 495.685H494.127L494.555 499.675H486.787L487.003 495.685Z" fill="#23120E"/>
<path d="M487.927 478.581H492.488L492.773 482.571H487.772L487.927 478.581Z" fill="#23120E"/>
<path d="M487.642 482.856H492.773H492.916" stroke="#47251C" stroke-width="0.855193"/>
<path d="M487.642 478.153H492.773" stroke="#47251C" stroke-width="0.855193"/>
<path d="M486.645 494.973L486.502 494.829" stroke="#47251C" stroke-width="0.855193"/>
<path d="M486.787 495.399H494.341" stroke="#47251C" stroke-width="0.855193"/>
<path d="M486.502 499.96H494.911" stroke="#47251C" stroke-width="0.855193"/>
<path d="M472.106 500.103H480.801" stroke="#47251C" stroke-width="0.855193"/>
<path d="M472.676 495.399H480.231" stroke="#47251C" stroke-width="0.855193"/>
<path d="M473.532 483.712H479.375" stroke="#47251C" stroke-width="0.855193"/>
<path d="M473.959 479.151H479.375" stroke="#47251C" stroke-width="0.855193"/>
<path d="M568.173 489.556H578.293" stroke="#47251C" stroke-width="0.855193"/>
<path d="M577.865 489.556L579.433 494.402H567.603L569.313 489.556H577.865Z" fill="#23120E" stroke="#47251C" stroke-width="0.855193"/>
<path d="M472.961 495.685H480.088L480.373 499.675H472.676L472.961 495.685Z" fill="#23120E"/>
<path d="M474.102 479.436H478.805L479.09 483.427H473.817L474.102 479.436Z" fill="#23120E"/>
<path d="M348.531 471.739H369.626" stroke="#47251C" stroke-width="2.56558"/>
<path d="M347.391 478.438H370.908" stroke="#47251C" stroke-width="2.56558"/>
<path d="M458.851 500.103C449.611 491.513 450.072 485.86 458.851 474.59C468.109 486.722 467.574 492.184 458.851 500.103Z" fill="#904937" fill-opacity="0.57" stroke="#47251C" stroke-width="0.855193"/>
<path d="M443.172 519.487V505.947V500.388" stroke="#47251C" stroke-width="0.570129"/>
<path d="M443.315 505.947L445.31 502.811" stroke="#47251C" stroke-width="0.570129"/>
<path d="M443.172 505.947L441.177 503.381" stroke="#47251C" stroke-width="0.570129"/>
<path d="M443.315 509.082C436.335 502.757 436.267 495.799 443.315 488.415C448.759 498.346 448.816 502.871 443.315 509.082Z" fill="#904937" fill-opacity="0.6" stroke="#47251C" stroke-width="0.855193"/>
<path d="M147.561 525.617V521.979V520.485" stroke="#47251C" stroke-width="0.285064"/>
<path d="M147.56 522.766C145.648 521.108 145.629 519.285 147.56 517.35C149.052 519.952 149.067 521.138 147.56 522.766Z" fill="#904937" fill-opacity="0.6" stroke="#47251C" stroke-width="0.285064"/>
<path d="M604.804 525.617V521.979V520.485" stroke="#47251C" stroke-width="0.142532"/>
<path d="M604.804 522.766C602.892 521.108 602.873 519.285 604.804 517.35C606.295 519.952 606.311 521.138 604.804 522.766Z" fill="#904937" fill-opacity="0.6" stroke="#47251C" stroke-width="0.142532"/>
<path d="M144.935 525.616V523.609V522.785" stroke="#47251C" stroke-width="0.285064"/>
<path d="M144.935 524.044C143.88 523.129 143.869 522.123 144.935 521.055C145.758 522.491 145.766 523.146 144.935 524.044Z" fill="#904937" fill-opacity="0.6" stroke="#47251C" stroke-width="0.285064"/>
<path d="M602.178 525.616V523.609V522.785" stroke="#47251C" stroke-width="0.142532"/>
<path d="M602.178 524.044C601.123 523.129 601.113 522.123 602.178 521.055C603.001 522.491 603.01 523.146 602.178 524.044Z" fill="#904937" fill-opacity="0.6" stroke="#47251C" stroke-width="0.142532"/>
<path d="M149.911 525.616V524V523.336" stroke="#47251C" stroke-width="0.285064"/>
<path d="M149.911 524.349C149.062 523.612 149.053 522.802 149.911 521.942C150.574 523.099 150.581 523.626 149.911 524.349Z" fill="#904937" fill-opacity="0.6" stroke="#47251C" stroke-width="0.285064"/>
<path d="M607.155 525.616V524V523.336" stroke="#47251C" stroke-width="0.142532"/>
<path d="M607.155 524.349C606.305 523.612 606.296 522.802 607.155 521.942C607.818 523.099 607.824 523.626 607.155 524.349Z" fill="#904937" fill-opacity="0.6" stroke="#47251C" stroke-width="0.142532"/>
<path d="M267.145 517.207H272.276H276.124L274.414 514.641H275.839L273.131 509.795H274.699L271.421 502.811L268.57 509.795H270.138L267.43 514.641H269.14L267.145 517.207Z" fill="#904937" fill-opacity="0.49"/>
<path d="M272.276 525.616V517.207M272.276 517.207H267.145L269.14 514.641H267.43L270.138 509.795H268.57L271.421 502.811L274.699 509.795H273.131L275.839 514.641H274.414L276.124 517.207H272.276Z" stroke="#47251C" stroke-width="0.855193"/>
<path d="M138.011 525.902V499.818" stroke="#47251C" stroke-width="0.285064"/>
<path d="M138.011 517.349L143.427 511.221L144.567 509.938M144.567 509.938L146.99 509.653M144.567 509.938L144.532 509.795M143.997 507.657L144.532 509.795M144.532 509.795L146.99 507.087" stroke="#47251C" stroke-width="0.285064"/>
<path d="M138.011 510.793L127.891 503.666" stroke="#47251C" stroke-width="0.285064"/>
<path d="M133.254 501.264C134.144 504.719 132.025 508.256 128.517 509.159C125.009 510.063 121.445 507.99 120.555 504.534C119.665 501.079 121.783 497.542 125.292 496.639C128.8 495.735 132.364 497.808 133.254 501.264Z" fill="#904937" fill-opacity="0.5" stroke="#47251C" stroke-width="0.285064"/>
<path d="M151.15 506.634C151.912 509.592 150.098 512.62 147.094 513.394C144.09 514.168 141.04 512.393 140.278 509.434C139.516 506.476 141.329 503.448 144.333 502.675C147.337 501.901 150.388 503.676 151.15 506.634Z" fill="#904937" fill-opacity="0.5" stroke="#47251C" stroke-width="0.285064"/>
<circle cx="138.011" cy="489.556" r="9.40713" fill="#904937" fill-opacity="0.45" stroke="#47251C" stroke-width="0.285064"/>
<path d="M138.011 500.103V489.983" stroke="#47251C" stroke-width="0.285064"/>
<path d="M126.038 502.241L127.891 503.666L127.178 499.818" stroke="#6B3729" stroke-width="0.285064"/>
<path d="M127.891 503.666L124.328 503.951" stroke="#6B3729" stroke-width="0.285064"/>
<path d="M591.23 525.946V516.524" stroke="#47251C" stroke-width="0.142532"/>
<path d="M591.23 522.857L593.186 520.643L593.598 520.18M593.598 520.18L594.473 520.077M593.598 520.18L593.585 520.128M593.392 519.356L593.585 520.128M593.585 520.128L594.473 519.15" stroke="#47251C" stroke-width="0.142532"/>
<path d="M591.23 520.488L587.574 517.914" stroke="#47251C" stroke-width="0.142532"/>
<path d="M589.423 517.069C589.732 518.267 588.997 519.496 587.778 519.81C586.558 520.124 585.321 519.403 585.012 518.205C584.704 517.006 585.438 515.778 586.658 515.464C587.878 515.149 589.114 515.87 589.423 517.069Z" fill="#904937" fill-opacity="0.5" stroke="#47251C" stroke-width="0.285064"/>
<path d="M595.887 519.009C596.15 520.027 595.526 521.072 594.488 521.339C593.45 521.607 592.399 520.993 592.137 519.975C591.874 518.956 592.498 517.911 593.536 517.644C594.574 517.377 595.625 517.99 595.887 519.009Z" fill="#904937" fill-opacity="0.5" stroke="#47251C" stroke-width="0.285064"/>
<circle cx="591.23" cy="512.817" r="3.30696" fill="#904937" fill-opacity="0.45" stroke="#47251C" stroke-width="0.285064"/>
<path d="M591.23 516.627V512.971" stroke="#47251C" stroke-width="0.142532"/>
<path d="M586.905 517.399L587.574 517.914L587.317 516.524" stroke="#6B3729" stroke-width="0.142532"/>
<path d="M587.574 517.914L586.287 518.017" stroke="#6B3729" stroke-width="0.142532"/>
<path d="M591.263 513.786L591.833 513.073" stroke="#47251C" stroke-width="0.142532"/>
<path d="M591.263 513.786L590.551 513.073" stroke="#47251C" stroke-width="0.142532"/>
<path d="M608.185 525.661V510.245" stroke="#47251C" stroke-width="0.142532"/>
<path d="M608.185 520.606L611.142 516.984L611.765 516.226M611.765 516.226L613.088 516.057M611.765 516.226L611.746 516.142M611.454 514.878L611.746 516.142M611.746 516.142L613.088 514.541" stroke="#47251C" stroke-width="0.142532"/>
<path d="M608.185 516.731L602.659 512.519" stroke="#47251C" stroke-width="0.142532"/>
<path d="M605.525 511.116C606.006 513.135 604.86 515.186 602.987 515.708C601.113 516.231 599.195 515.034 598.714 513.015C598.234 510.996 599.379 508.945 601.253 508.423C603.126 507.9 605.044 509.097 605.525 511.116Z" fill="#904937" fill-opacity="0.5" stroke="#47251C" stroke-width="0.285064"/>
<path d="M615.297 514.29C615.708 516.016 614.729 517.766 613.131 518.211C611.533 518.657 609.895 517.636 609.484 515.911C609.074 514.186 610.053 512.436 611.651 511.99C613.249 511.544 614.887 512.565 615.297 514.29Z" fill="#904937" fill-opacity="0.5" stroke="#47251C" stroke-width="0.285064"/>
<path d="M613.257 504.179C613.257 507.229 610.976 509.681 608.185 509.681C605.394 509.681 603.112 507.229 603.112 504.179C603.112 501.13 605.394 498.678 608.185 498.678C610.976 498.678 613.257 501.13 613.257 504.179Z" fill="#904937" fill-opacity="0.45" stroke="#47251C" stroke-width="0.285064"/>
<path d="M608.185 510.413V504.432" stroke="#47251C" stroke-width="0.142532"/>
<path d="M601.647 511.677L602.659 512.519L602.269 510.245" stroke="#6B3729" stroke-width="0.142532"/>
<path d="M602.659 512.519L600.713 512.688" stroke="#6B3729" stroke-width="0.142532"/>
<path d="M608.236 505.765L609.097 504.599" stroke="#47251C" stroke-width="0.142532"/>
<path d="M608.235 505.765L607.158 504.599" stroke="#47251C" stroke-width="0.142532"/>
<path d="M138.011 493.974C138.888 492.121 139.506 491.272 139.579 491.124" stroke="#47251C" stroke-width="0.285064"/>
<path d="M138.011 493.974L136.443 491.694" stroke="#47251C" stroke-width="0.285064"/>
<path d="M545.259 456.916H517.62L515.294 465.753H546.08L545.259 456.916Z" fill="#23120E" stroke="#47251C" stroke-width="0.855193"/>
<path d="M548.076 483.142H522.135V492.834H548.931L548.076 483.142Z" fill="#23120E" stroke="#47251C" stroke-width="0.855193"/>
<path d="M620.055 526.044L620.91 492.834V526.044" stroke="#47251C" stroke-width="0.855193"/>
<path d="M621.195 492.406C624.074 497.118 626.196 499.653 630.317 503.524" stroke="#47251C" stroke-width="0.855193"/>
<path d="M621.195 492.406C625.273 496.274 627.49 498.953 630.46 503.524" stroke="#47251C" stroke-width="0.855193"/>
<rect x="623.333" y="495.484" width="0.855193" height="6.88562" transform="rotate(-36.7814 623.333 495.484)" fill="#47251C"/>
<path d="M621.203 491.784C623.796 486.909 624.9 483.793 626.136 478.276" stroke="#47251C" stroke-width="0.855193"/>
<path d="M621.203 491.784C622.459 486.305 623.638 483.035 626.064 478.153" stroke="#47251C" stroke-width="0.855193"/>
<rect x="622.766" y="488.378" width="0.855193" height="6.88562" transform="rotate(-157.349 622.766 488.378)" fill="#47251C"/>
<path d="M620.411 492.33C614.971 491.384 611.666 491.306 606.038 491.849" stroke="#47251C" stroke-width="0.855193"/>
<path d="M620.411 492.33C614.814 492.843 611.338 492.741 605.944 491.956" stroke="#47251C" stroke-width="0.855193"/>
<rect x="616.688" y="491.906" width="0.855193" height="6.88562" transform="rotate(94.5042 616.688 491.906)" fill="#47251C"/>
<circle cx="620.91" cy="492.264" r="0.712661" fill="#47251C"/>
<path d="M645.142 525.474L646.248 482.558V525.474" stroke="#47251C" stroke-width="1.10512"/>
<path d="M646.632 481.951C652.679 485.738 656.596 487.445 663.594 489.542" stroke="#47251C" stroke-width="1.10512"/>
<path d="M646.632 481.951C653.579 484.07 657.688 485.888 663.759 489.46" stroke="#47251C" stroke-width="1.10512"/>
<rect x="650.88" y="484.276" width="1.10512" height="8.89793" transform="rotate(-63.3011 650.88 484.276)" fill="#47251C"/>
<path d="M646.135 481.1C643.831 474.347 641.869 470.552 637.76 464.51" stroke="#47251C" stroke-width="1.10512"/>
<path d="M646.135 481.1C642.08 475.074 640.039 471.071 637.58 464.47" stroke="#47251C" stroke-width="1.10512"/>
<rect x="644.305" y="476.616" width="1.10512" height="8.89793" transform="rotate(155.802 644.305 476.616)" fill="#47251C"/>
<path d="M645.607 482.159C639.453 485.771 636.128 488.454 631.033 493.69" stroke="#47251C" stroke-width="1.10512"/>
<path d="M645.607 482.159C640.516 487.34 637.004 490.142 631.03 493.875" stroke="#47251C" stroke-width="1.10512"/>
<rect x="641.581" y="484.851" width="1.10512" height="8.89793" transform="rotate(54.2363 641.581 484.851)" fill="#47251C"/>
<circle cx="646.248" cy="481.822" r="0.920935" fill="#47251C"/>
<path d="M655.566 526.248L656.064 506.901V526.248" stroke="#47251C" stroke-width="0.723307"/>
<path d="M656.115 506.484C658.256 508.885 659.736 510.117 662.502 511.906" stroke="#47251C" stroke-width="0.723307"/>
<path d="M656.115 506.484C658.856 508.276 660.405 509.581 662.583 511.892" stroke="#47251C" stroke-width="0.723307"/>
<rect x="657.661" y="508.025" width="0.498213" height="4.01138" transform="rotate(-47.0764 657.661 508.025)" fill="#47251C"/>
<path d="M656.254 506.315C658.643 504.162 659.867 502.675 661.642 499.9" stroke="#47251C" stroke-width="0.723307"/>
<path d="M656.254 506.315C658.031 503.565 659.327 502.009 661.626 499.818" stroke="#47251C" stroke-width="0.723307"/>
<rect x="657.787" y="504.761" width="0.498213" height="4.01138" transform="rotate(-137.391 657.787 504.761)" fill="#47251C"/>
<path d="M656.183 506.289C653.006 506.787 651.168 507.363 648.165 508.718" stroke="#47251C" stroke-width="0.723307"/>
<path d="M656.183 506.289C653.192 507.621 651.256 508.216 648.134 508.795" stroke="#47251C" stroke-width="0.723307"/>
<rect x="654.05" y="506.753" width="0.498213" height="4.01138" transform="rotate(75.7304 654.05 506.753)" fill="#47251C"/>
<circle cx="656.064" cy="506.569" r="0.415178" fill="#47251C"/>
<path d="M59.6203 523.192L65.736 525.688L65.8143 528.126L59.7067 530.256L52.1324 526.807L59.6203 523.192Z" fill="#23120E" stroke="#904937" stroke-width="0.70288"/>
<path d="M65.7468 526.804L52.9189 526.757" stroke="#904937" stroke-width="0.70288"/>
<path d="M66.032 526.899H100.24" stroke="#23120E" stroke-width="2.56558"/>
<path d="M89.0816 517.009L101.846 526.064L95.7205 526.03L89.3214 525.994L84.2432 525.965L79.3642 525.938L74.6193 525.911L69.316 525.881L69.316 527.468L101.386 527.734L89.9832 536.286L57.7812 536.286L69.316 527.468L69.316 525.881L56.6306 517.005L62.0659 517.006L66.7504 517.006L71.5965 517.007L76.4426 517.007L83.0034 517.008L89.0816 517.009Z" fill="#904937"/>
<path d="M69.316 525.881L56.6306 517.005L89.0816 517.009L101.846 526.064L69.316 525.881ZM69.316 525.881L69.316 527.468M95.7637 526.06L82.9991 517.005M89.7774 526.312L76.4426 517.007M84.852 526.397L71.5965 517.007M80.291 526.594L66.7504 517.006M74.8115 526.047L62.0469 516.992M69.316 527.468L57.7812 536.286L89.9832 536.286L101.386 527.734L69.316 527.468Z" stroke="#23120E" stroke-width="1.05432"/>
<path d="M89.6981 536.429L101.671 527.734M84.8392 536.286L97.3949 526.796M78.4381 536.286L91.1423 526.885M73.7345 536.286L86.2229 526.971M68.7459 536.286L81.3336 527.056M63.3297 536.286L75.7113 527.153" stroke="#23120E" stroke-width="1.05432"/>
<path d="M100.182 526.737L704.44 527.021" stroke="#23120E" stroke-width="4.27597"/>
<path d="M699.308 506.141L736.68 526.359L699.991 545.458L705.63 526.898L699.308 506.141Z" fill="#904937"/>
<path d="M736.68 526.359L699.308 506.141L705.63 526.898M736.68 526.359L699.991 545.458L705.63 526.898M736.68 526.359L705.63 526.898" stroke="#23120E" stroke-width="1.71039"/>
<path d="M226.505 567.651L221.011 584H217.159L224.361 564.725H226.823L226.505 567.651ZM231.099 584L225.578 567.651L225.248 564.725H227.723L234.964 584H231.099ZM230.847 576.838V579.711H220.508V576.838H230.847ZM240.776 581.352L244.112 569.676H247.766L242.855 584H240.63L240.776 581.352ZM238.34 569.676L241.716 581.379L241.835 584H239.598L234.673 569.676H238.34ZM248.772 576.984V576.706C248.772 575.655 248.922 574.689 249.222 573.806C249.522 572.915 249.959 572.143 250.533 571.49C251.106 570.837 251.808 570.329 252.638 569.967C253.467 569.597 254.412 569.411 255.471 569.411C256.547 569.411 257.501 569.597 258.33 569.967C259.169 570.329 259.875 570.837 260.448 571.49C261.022 572.143 261.459 572.915 261.759 573.806C262.059 574.689 262.209 575.655 262.209 576.706V576.984C262.209 578.025 262.059 578.991 261.759 579.883C261.459 580.765 261.022 581.538 260.448 582.2C259.875 582.853 259.173 583.36 258.343 583.722C257.514 584.084 256.565 584.265 255.497 584.265C254.438 584.265 253.489 584.084 252.651 583.722C251.812 583.36 251.106 582.853 250.533 582.2C249.959 581.538 249.522 580.765 249.222 579.883C248.922 578.991 248.772 578.025 248.772 576.984ZM252.267 576.706V576.984C252.267 577.61 252.329 578.197 252.452 578.744C252.576 579.292 252.766 579.773 253.022 580.187C253.278 580.602 253.608 580.929 254.014 581.167C254.429 581.396 254.924 581.511 255.497 581.511C256.062 581.511 256.547 581.396 256.953 581.167C257.359 580.929 257.69 580.602 257.946 580.187C258.211 579.773 258.405 579.292 258.529 578.744C258.652 578.197 258.714 577.61 258.714 576.984V576.706C258.714 576.088 258.652 575.51 258.529 574.971C258.405 574.424 258.211 573.943 257.946 573.528C257.69 573.105 257.355 572.774 256.94 572.536C256.534 572.288 256.044 572.165 255.471 572.165C254.906 572.165 254.42 572.288 254.014 572.536C253.608 572.774 253.278 573.105 253.022 573.528C252.766 573.943 252.576 574.424 252.452 574.971C252.329 575.51 252.267 576.088 252.267 576.706ZM268.458 569.676V584H264.949V569.676H268.458ZM264.711 565.93C264.711 565.409 264.888 564.976 265.241 564.632C265.602 564.288 266.088 564.116 266.697 564.116C267.306 564.116 267.787 564.288 268.14 564.632C268.502 564.976 268.683 565.409 268.683 565.93C268.683 566.442 268.502 566.87 268.14 567.214C267.787 567.558 267.306 567.73 266.697 567.73C266.088 567.73 265.602 567.558 265.241 567.214C264.888 566.87 264.711 566.442 264.711 565.93ZM280.385 580.955V563.666H283.907V584H280.729L280.385 580.955ZM271.185 577.01V576.732C271.185 575.638 271.308 574.645 271.555 573.754C271.811 572.853 272.182 572.081 272.667 571.437C273.153 570.793 273.74 570.294 274.428 569.941C275.125 569.588 275.915 569.411 276.798 569.411C277.654 569.411 278.4 569.583 279.035 569.928C279.679 570.272 280.226 570.762 280.677 571.397C281.135 572.033 281.502 572.787 281.775 573.661C282.049 574.526 282.247 575.479 282.371 576.52V577.275C282.247 578.29 282.049 579.221 281.775 580.068C281.502 580.915 281.135 581.657 280.677 582.292C280.226 582.919 279.679 583.404 279.035 583.748C278.391 584.093 277.636 584.265 276.771 584.265C275.897 584.265 275.112 584.084 274.415 583.722C273.726 583.36 273.139 582.853 272.654 582.2C272.178 581.546 271.811 580.779 271.555 579.896C271.308 579.014 271.185 578.052 271.185 577.01ZM274.693 576.732V577.01C274.693 577.628 274.746 578.206 274.852 578.744C274.958 579.283 275.13 579.759 275.368 580.174C275.606 580.58 275.911 580.898 276.281 581.127C276.661 581.357 277.12 581.471 277.658 581.471C278.347 581.471 278.911 581.321 279.353 581.021C279.803 580.712 280.151 580.293 280.399 579.764C280.646 579.225 280.805 578.621 280.875 577.95V575.872C280.84 575.342 280.747 574.852 280.597 574.402C280.456 573.952 280.253 573.564 279.988 573.237C279.732 572.911 279.414 572.655 279.035 572.469C278.655 572.284 278.205 572.191 277.685 572.191C277.146 572.191 276.687 572.311 276.308 572.549C275.928 572.778 275.619 573.1 275.381 573.515C275.143 573.93 274.966 574.411 274.852 574.958C274.746 575.505 274.693 576.097 274.693 576.732ZM294.087 564.725H301.09C302.555 564.725 303.813 564.946 304.863 565.387C305.913 565.828 306.721 566.481 307.286 567.346C307.85 568.211 308.133 569.275 308.133 570.537C308.133 571.534 307.956 572.399 307.603 573.131C307.25 573.864 306.752 574.477 306.107 574.971C305.472 575.466 304.722 575.854 303.857 576.136L302.718 576.719H296.536L296.51 573.846H301.13C301.88 573.846 302.502 573.714 302.996 573.449C303.491 573.184 303.861 572.818 304.108 572.35C304.364 571.882 304.492 571.349 304.492 570.748C304.492 570.104 304.369 569.548 304.122 569.08C303.875 568.604 303.499 568.238 302.996 567.982C302.493 567.726 301.858 567.598 301.09 567.598H297.728V584H294.087V564.725ZM304.969 584L300.508 575.369L304.36 575.355L308.874 583.815V584H304.969ZM317.492 584.265C316.407 584.265 315.432 584.088 314.567 583.735C313.702 583.382 312.965 582.892 312.356 582.266C311.756 581.63 311.292 580.893 310.966 580.055C310.648 579.208 310.489 578.299 310.489 577.328V576.798C310.489 575.695 310.648 574.693 310.966 573.793C311.284 572.884 311.734 572.103 312.316 571.45C312.899 570.797 313.596 570.294 314.408 569.941C315.22 569.588 316.116 569.411 317.095 569.411C318.11 569.411 319.006 569.583 319.783 569.928C320.559 570.263 321.208 570.74 321.729 571.357C322.249 571.975 322.642 572.717 322.907 573.581C323.172 574.437 323.304 575.386 323.304 576.428V577.897H312.078V575.488H319.862V575.223C319.844 574.667 319.739 574.159 319.544 573.701C319.35 573.233 319.05 572.862 318.644 572.589C318.238 572.306 317.713 572.165 317.069 572.165C316.548 572.165 316.094 572.28 315.705 572.509C315.326 572.73 315.008 573.047 314.752 573.462C314.505 573.868 314.32 574.354 314.196 574.918C314.073 575.483 314.011 576.11 314.011 576.798V577.328C314.011 577.928 314.09 578.484 314.249 578.996C314.417 579.508 314.659 579.953 314.977 580.333C315.304 580.704 315.692 580.995 316.142 581.207C316.601 581.41 317.122 581.511 317.704 581.511C318.437 581.511 319.099 581.37 319.69 581.088C320.29 580.796 320.811 580.368 321.252 579.803L323.013 581.63C322.713 582.072 322.307 582.495 321.795 582.901C321.292 583.307 320.683 583.638 319.968 583.894C319.253 584.141 318.428 584.265 317.492 584.265ZM334.239 580.955V563.666H337.76V584H334.583L334.239 580.955ZM325.038 577.01V576.732C325.038 575.638 325.162 574.645 325.409 573.754C325.665 572.853 326.036 572.081 326.521 571.437C327.006 570.793 327.593 570.294 328.282 569.941C328.979 569.588 329.769 569.411 330.651 569.411C331.507 569.411 332.253 569.583 332.889 569.928C333.533 570.272 334.08 570.762 334.53 571.397C334.989 572.033 335.355 572.787 335.629 573.661C335.903 574.526 336.101 575.479 336.225 576.52V577.275C336.101 578.29 335.903 579.221 335.629 580.068C335.355 580.915 334.989 581.657 334.53 582.292C334.08 582.919 333.533 583.404 332.889 583.748C332.244 584.093 331.49 584.265 330.625 584.265C329.751 584.265 328.966 584.084 328.268 583.722C327.58 583.36 326.993 582.853 326.508 582.2C326.031 581.546 325.665 580.779 325.409 579.896C325.162 579.014 325.038 578.052 325.038 577.01ZM328.546 576.732V577.01C328.546 577.628 328.599 578.206 328.705 578.744C328.811 579.283 328.983 579.759 329.222 580.174C329.46 580.58 329.764 580.898 330.135 581.127C330.515 581.357 330.973 581.471 331.512 581.471C332.2 581.471 332.765 581.321 333.206 581.021C333.656 580.712 334.005 580.293 334.252 579.764C334.499 579.225 334.658 578.621 334.729 577.95V575.872C334.693 575.342 334.601 574.852 334.451 574.402C334.31 573.952 334.107 573.564 333.842 573.237C333.586 572.911 333.268 572.655 332.889 572.469C332.509 572.284 332.059 572.191 331.538 572.191C331 572.191 330.541 572.311 330.162 572.549C329.782 572.778 329.473 573.1 329.235 573.515C328.997 573.93 328.82 574.411 328.705 574.958C328.599 575.505 328.546 576.097 328.546 576.732ZM349.45 580.598V569.676H352.971V584H349.662L349.45 580.598ZM349.9 577.632L350.985 577.606C350.985 578.568 350.88 579.455 350.668 580.267C350.456 581.079 350.125 581.785 349.675 582.385C349.234 582.976 348.673 583.44 347.994 583.775C347.314 584.101 346.511 584.265 345.584 584.265C344.878 584.265 344.234 584.168 343.651 583.974C343.069 583.771 342.566 583.457 342.142 583.034C341.727 582.601 341.405 582.05 341.176 581.379C340.946 580.699 340.832 579.883 340.832 578.93V569.676H344.327V578.956C344.327 579.433 344.38 579.83 344.485 580.148C344.6 580.465 344.755 580.726 344.949 580.929C345.152 581.123 345.386 581.264 345.65 581.352C345.924 581.432 346.215 581.471 346.524 581.471C347.371 581.471 348.038 581.304 348.523 580.968C349.017 580.624 349.37 580.165 349.582 579.592C349.794 579.009 349.9 578.356 349.9 577.632ZM361.947 581.511C362.441 581.511 362.882 581.414 363.271 581.22C363.659 581.026 363.968 580.752 364.197 580.399C364.436 580.046 364.564 579.636 364.581 579.168H367.878C367.86 580.139 367.586 581.008 367.057 581.776C366.527 582.544 365.821 583.153 364.939 583.603C364.065 584.044 363.085 584.265 362 584.265C360.897 584.265 359.935 584.079 359.114 583.709C358.293 583.338 357.609 582.822 357.062 582.16C356.524 581.498 356.118 580.73 355.844 579.856C355.579 578.983 355.447 578.047 355.447 577.05V576.626C355.447 575.629 355.579 574.693 355.844 573.82C356.118 572.946 356.524 572.178 357.062 571.516C357.609 570.854 358.293 570.338 359.114 569.967C359.935 569.597 360.892 569.411 361.987 569.411C363.143 569.411 364.158 569.636 365.031 570.086C365.914 570.537 366.602 571.172 367.097 571.993C367.6 572.814 367.86 573.78 367.878 574.892H364.581C364.564 574.38 364.449 573.921 364.237 573.515C364.025 573.109 363.725 572.783 363.337 572.536C362.949 572.288 362.476 572.165 361.92 572.165C361.329 572.165 360.835 572.288 360.438 572.536C360.049 572.783 359.745 573.122 359.524 573.555C359.312 573.979 359.162 574.455 359.074 574.985C358.995 575.505 358.955 576.053 358.955 576.626V577.05C358.955 577.632 358.995 578.188 359.074 578.718C359.162 579.247 359.312 579.724 359.524 580.148C359.745 580.562 360.049 580.893 360.438 581.141C360.835 581.388 361.338 581.511 361.947 581.511ZM376.641 584.265C375.556 584.265 374.581 584.088 373.716 583.735C372.851 583.382 372.114 582.892 371.505 582.266C370.905 581.63 370.441 580.893 370.115 580.055C369.797 579.208 369.638 578.299 369.638 577.328V576.798C369.638 575.695 369.797 574.693 370.115 573.793C370.433 572.884 370.883 572.103 371.465 571.45C372.048 570.797 372.745 570.294 373.557 569.941C374.369 569.588 375.265 569.411 376.244 569.411C377.259 569.411 378.155 569.583 378.932 569.928C379.708 570.263 380.357 570.74 380.878 571.357C381.398 571.975 381.791 572.717 382.056 573.581C382.321 574.437 382.453 575.386 382.453 576.428V577.897H371.227V575.488H379.011V575.223C378.993 574.667 378.888 574.159 378.693 573.701C378.499 573.233 378.199 572.862 377.793 572.589C377.387 572.306 376.862 572.165 376.218 572.165C375.697 572.165 375.243 572.28 374.854 572.509C374.475 572.73 374.157 573.047 373.901 573.462C373.654 573.868 373.469 574.354 373.345 574.918C373.222 575.483 373.16 576.11 373.16 576.798V577.328C373.16 577.928 373.239 578.484 373.398 578.996C373.566 579.508 373.808 579.953 374.126 580.333C374.453 580.704 374.841 580.995 375.291 581.207C375.75 581.41 376.271 581.511 376.853 581.511C377.586 581.511 378.248 581.37 378.839 581.088C379.439 580.796 379.96 580.368 380.401 579.803L382.162 581.63C381.862 582.072 381.456 582.495 380.944 582.901C380.441 583.307 379.832 583.638 379.117 583.894C378.402 584.141 377.577 584.265 376.641 584.265ZM391.813 564.725H398.816C400.281 564.725 401.538 564.946 402.589 565.387C403.639 565.828 404.446 566.481 405.011 567.346C405.576 568.211 405.859 569.275 405.859 570.537C405.859 571.534 405.682 572.399 405.329 573.131C404.976 573.864 404.477 574.477 403.833 574.971C403.198 575.466 402.447 575.854 401.583 576.136L400.444 576.719H394.262L394.235 573.846H398.855C399.606 573.846 400.228 573.714 400.722 573.449C401.216 573.184 401.587 572.818 401.834 572.35C402.09 571.882 402.218 571.349 402.218 570.748C402.218 570.104 402.094 569.548 401.847 569.08C401.6 568.604 401.225 568.238 400.722 567.982C400.219 567.726 399.584 567.598 398.816 567.598H395.453V584H391.813V564.725ZM402.695 584L398.233 575.369L402.086 575.355L406.6 583.815V584H402.695ZM415.218 584.265C414.132 584.265 413.157 584.088 412.292 583.735C411.427 583.382 410.691 582.892 410.082 582.266C409.481 581.63 409.018 580.893 408.692 580.055C408.374 579.208 408.215 578.299 408.215 577.328V576.798C408.215 575.695 408.374 574.693 408.692 573.793C409.009 572.884 409.459 572.103 410.042 571.45C410.624 570.797 411.322 570.294 412.134 569.941C412.945 569.588 413.841 569.411 414.821 569.411C415.836 569.411 416.732 569.583 417.508 569.928C418.285 570.263 418.934 570.74 419.454 571.357C419.975 571.975 420.368 572.717 420.633 573.581C420.897 574.437 421.03 575.386 421.03 576.428V577.897H409.804V575.488H417.588V575.223C417.57 574.667 417.464 574.159 417.27 573.701C417.076 573.233 416.776 572.862 416.37 572.589C415.964 572.306 415.439 572.165 414.794 572.165C414.274 572.165 413.819 572.28 413.431 572.509C413.051 572.73 412.734 573.047 412.478 573.462C412.231 573.868 412.045 574.354 411.922 574.918C411.798 575.483 411.736 576.11 411.736 576.798V577.328C411.736 577.928 411.816 578.484 411.975 578.996C412.142 579.508 412.385 579.953 412.703 580.333C413.029 580.704 413.418 580.995 413.868 581.207C414.327 581.41 414.847 581.511 415.43 581.511C416.162 581.511 416.824 581.37 417.416 581.088C418.016 580.796 418.536 580.368 418.978 579.803L420.738 581.63C420.438 582.072 420.032 582.495 419.521 582.901C419.017 583.307 418.408 583.638 417.694 583.894C416.979 584.141 416.154 584.265 415.218 584.265ZM429.251 581.511C429.745 581.511 430.186 581.414 430.575 581.22C430.963 581.026 431.272 580.752 431.501 580.399C431.74 580.046 431.867 579.636 431.885 579.168H435.181C435.164 580.139 434.89 581.008 434.361 581.776C433.831 582.544 433.125 583.153 432.243 583.603C431.369 584.044 430.389 584.265 429.304 584.265C428.2 584.265 427.238 584.079 426.418 583.709C425.597 583.338 424.913 582.822 424.366 582.16C423.827 581.498 423.421 580.73 423.148 579.856C422.883 578.983 422.751 578.047 422.751 577.05V576.626C422.751 575.629 422.883 574.693 423.148 573.82C423.421 572.946 423.827 572.178 424.366 571.516C424.913 570.854 425.597 570.338 426.418 569.967C427.238 569.597 428.196 569.411 429.29 569.411C430.447 569.411 431.462 569.636 432.335 570.086C433.218 570.537 433.906 571.172 434.4 571.993C434.903 572.814 435.164 573.78 435.181 574.892H431.885C431.867 574.38 431.753 573.921 431.541 573.515C431.329 573.109 431.029 572.783 430.641 572.536C430.252 572.288 429.78 572.165 429.224 572.165C428.633 572.165 428.139 572.288 427.742 572.536C427.353 572.783 427.049 573.122 426.828 573.555C426.616 573.979 426.466 574.455 426.378 574.985C426.299 575.505 426.259 576.053 426.259 576.626V577.05C426.259 577.632 426.299 578.188 426.378 578.718C426.466 579.247 426.616 579.724 426.828 580.148C427.049 580.562 427.353 580.893 427.742 581.141C428.139 581.388 428.642 581.511 429.251 581.511ZM441.708 582.411L445.547 569.676H449.294L443.548 586.171C443.416 586.524 443.244 586.908 443.032 587.323C442.829 587.738 442.555 588.13 442.211 588.501C441.867 588.881 441.434 589.189 440.914 589.428C440.402 589.666 439.78 589.785 439.047 589.785C438.729 589.785 438.447 589.763 438.2 589.719C437.953 589.675 437.692 589.617 437.419 589.547V586.926C437.507 586.935 437.609 586.939 437.723 586.939C437.847 586.948 437.953 586.952 438.041 586.952C438.553 586.952 438.976 586.89 439.312 586.767C439.647 586.652 439.916 586.462 440.119 586.198C440.331 585.942 440.508 585.606 440.649 585.191L441.708 582.411ZM439.815 569.676L443.058 580.227L443.628 583.921L441.218 584.357L436.042 569.676H439.815ZM456.681 581.511C457.175 581.511 457.616 581.414 458.004 581.22C458.393 581.026 458.702 580.752 458.931 580.399C459.169 580.046 459.297 579.636 459.315 579.168H462.611C462.594 580.139 462.32 581.008 461.791 581.776C461.261 582.544 460.555 583.153 459.672 583.603C458.799 584.044 457.819 584.265 456.734 584.265C455.63 584.265 454.668 584.079 453.848 583.709C453.027 583.338 452.343 582.822 451.796 582.16C451.257 581.498 450.851 580.73 450.578 579.856C450.313 578.983 450.181 578.047 450.181 577.05V576.626C450.181 575.629 450.313 574.693 450.578 573.82C450.851 572.946 451.257 572.178 451.796 571.516C452.343 570.854 453.027 570.338 453.848 569.967C454.668 569.597 455.626 569.411 456.72 569.411C457.876 569.411 458.891 569.636 459.765 570.086C460.648 570.537 461.336 571.172 461.83 571.993C462.333 572.814 462.594 573.78 462.611 574.892H459.315C459.297 574.38 459.183 573.921 458.971 573.515C458.759 573.109 458.459 572.783 458.071 572.536C457.682 572.288 457.21 572.165 456.654 572.165C456.063 572.165 455.569 572.288 455.171 572.536C454.783 572.783 454.479 573.122 454.258 573.555C454.046 573.979 453.896 574.455 453.808 574.985C453.728 575.505 453.689 576.053 453.689 576.626V577.05C453.689 577.632 453.728 578.188 453.808 578.718C453.896 579.247 454.046 579.724 454.258 580.148C454.479 580.562 454.783 580.893 455.171 581.141C455.569 581.388 456.072 581.511 456.681 581.511ZM468.648 563.666V584H465.14V563.666H468.648ZM478.418 584.265C477.332 584.265 476.357 584.088 475.492 583.735C474.627 583.382 473.89 582.892 473.282 582.266C472.681 581.63 472.218 580.893 471.891 580.055C471.574 579.208 471.415 578.299 471.415 577.328V576.798C471.415 575.695 471.574 574.693 471.891 573.793C472.209 572.884 472.659 572.103 473.242 571.45C473.824 570.797 474.522 570.294 475.333 569.941C476.145 569.588 477.041 569.411 478.021 569.411C479.036 569.411 479.932 569.583 480.708 569.928C481.485 570.263 482.134 570.74 482.654 571.357C483.175 571.975 483.568 572.717 483.832 573.581C484.097 574.437 484.23 575.386 484.23 576.428V577.897H473.004V575.488H480.788V575.223C480.77 574.667 480.664 574.159 480.47 573.701C480.276 573.233 479.976 572.862 479.57 572.589C479.164 572.306 478.639 572.165 477.994 572.165C477.474 572.165 477.019 572.28 476.631 572.509C476.251 572.73 475.934 573.047 475.678 573.462C475.431 573.868 475.245 574.354 475.122 574.918C474.998 575.483 474.936 576.11 474.936 576.798V577.328C474.936 577.928 475.016 578.484 475.175 578.996C475.342 579.508 475.585 579.953 475.903 580.333C476.229 580.704 476.618 580.995 477.068 581.207C477.527 581.41 478.047 581.511 478.63 581.511C479.362 581.511 480.024 581.37 480.616 581.088C481.216 580.796 481.736 580.368 482.178 579.803L483.938 581.63C483.638 582.072 483.232 582.495 482.72 582.901C482.217 583.307 481.608 583.638 480.894 583.894C480.179 584.141 479.354 584.265 478.418 584.265ZM509.197 573.873V574.866C509.197 576.322 509.003 577.632 508.615 578.797C508.226 579.953 507.675 580.938 506.96 581.749C506.245 582.561 505.393 583.184 504.405 583.616C503.416 584.049 502.318 584.265 501.109 584.265C499.917 584.265 498.823 584.049 497.825 583.616C496.837 583.184 495.981 582.561 495.257 581.749C494.533 580.938 493.973 579.953 493.576 578.797C493.179 577.632 492.98 576.322 492.98 574.866V573.873C492.98 572.408 493.179 571.097 493.576 569.941C493.973 568.785 494.529 567.801 495.244 566.989C495.959 566.168 496.81 565.541 497.799 565.109C498.796 564.676 499.891 564.46 501.082 564.46C502.291 564.46 503.39 564.676 504.378 565.109C505.367 565.541 506.219 566.168 506.933 566.989C507.657 567.801 508.213 568.785 508.601 569.941C508.999 571.097 509.197 572.408 509.197 573.873ZM505.517 574.866V573.846C505.517 572.796 505.42 571.874 505.226 571.079C505.032 570.276 504.745 569.601 504.365 569.054C503.986 568.507 503.518 568.096 502.962 567.823C502.406 567.54 501.779 567.399 501.082 567.399C500.376 567.399 499.749 567.54 499.202 567.823C498.664 568.096 498.205 568.507 497.825 569.054C497.446 569.601 497.155 570.276 496.952 571.079C496.758 571.874 496.66 572.796 496.66 573.846V574.866C496.66 575.907 496.758 576.829 496.952 577.632C497.155 578.435 497.446 579.115 497.825 579.671C498.214 580.218 498.682 580.633 499.229 580.915C499.776 581.198 500.403 581.339 501.109 581.339C501.815 581.339 502.441 581.198 502.988 580.915C503.536 580.633 503.995 580.218 504.365 579.671C504.745 579.115 505.032 578.435 505.226 577.632C505.42 576.829 505.517 575.907 505.517 574.866ZM516.597 584H513.076V568.352C513.076 567.276 513.283 566.371 513.698 565.638C514.113 564.897 514.704 564.337 515.472 563.957C516.24 563.578 517.145 563.388 518.186 563.388C518.53 563.388 518.857 563.41 519.166 563.454C519.483 563.498 519.797 563.56 520.106 563.639L520.039 566.3C519.872 566.256 519.686 566.225 519.483 566.208C519.289 566.19 519.073 566.181 518.835 566.181C518.358 566.181 517.952 566.265 517.617 566.433C517.281 566.6 517.025 566.847 516.849 567.174C516.681 567.492 516.597 567.884 516.597 568.352V584ZM519.497 569.676V572.191H510.918V569.676H519.497ZM526.235 584H522.714V568.352C522.714 567.276 522.921 566.371 523.336 565.638C523.751 564.897 524.342 564.337 525.11 563.957C525.878 563.578 526.782 563.388 527.824 563.388C528.168 563.388 528.494 563.41 528.803 563.454C529.121 563.498 529.434 563.56 529.743 563.639L529.677 566.3C529.509 566.256 529.324 566.225 529.121 566.208C528.927 566.19 528.711 566.181 528.472 566.181C527.996 566.181 527.59 566.265 527.254 566.433C526.919 566.6 526.663 566.847 526.487 567.174C526.319 567.492 526.235 567.884 526.235 568.352V584ZM529.134 569.676V572.191H520.556V569.676H529.134ZM539.169 580.081C539.169 579.781 539.089 579.512 538.931 579.274C538.772 579.036 538.472 578.819 538.03 578.625C537.598 578.422 536.962 578.232 536.124 578.056C535.383 577.897 534.699 577.699 534.072 577.46C533.445 577.222 532.907 576.935 532.457 576.6C532.007 576.256 531.654 575.854 531.398 575.395C531.151 574.927 531.027 574.389 531.027 573.78C531.027 573.189 531.155 572.633 531.411 572.112C531.667 571.582 532.038 571.119 532.523 570.722C533.009 570.316 533.6 569.998 534.297 569.769C534.994 569.53 535.78 569.411 536.654 569.411C537.871 569.411 538.917 569.61 539.791 570.007C540.674 570.404 541.349 570.951 541.817 571.649C542.284 572.337 542.518 573.114 542.518 573.979H539.023C539.023 573.599 538.935 573.255 538.758 572.946C538.591 572.637 538.33 572.39 537.977 572.205C537.624 572.01 537.179 571.913 536.64 571.913C536.155 571.913 535.745 571.993 535.409 572.152C535.083 572.311 534.835 572.518 534.668 572.774C534.5 573.03 534.416 573.312 534.416 573.621C534.416 573.851 534.46 574.058 534.549 574.243C534.646 574.42 534.8 574.583 535.012 574.733C535.224 574.883 535.511 575.02 535.872 575.144C536.243 575.267 536.698 575.386 537.236 575.501C538.304 575.713 539.235 575.995 540.029 576.348C540.832 576.692 541.459 577.151 541.909 577.725C542.359 578.299 542.584 579.031 542.584 579.923C542.584 580.558 542.448 581.141 542.174 581.67C541.9 582.191 541.503 582.645 540.982 583.034C540.462 583.422 539.84 583.726 539.116 583.947C538.392 584.159 537.576 584.265 536.667 584.265C535.352 584.265 534.24 584.031 533.331 583.563C532.422 583.087 531.733 582.486 531.266 581.763C530.798 581.03 530.564 580.271 530.564 579.486H533.913C533.94 580.042 534.09 580.487 534.363 580.823C534.637 581.158 534.981 581.401 535.396 581.551C535.82 581.692 536.265 581.763 536.733 581.763C537.263 581.763 537.708 581.692 538.07 581.551C538.432 581.401 538.705 581.202 538.891 580.955C539.076 580.699 539.169 580.408 539.169 580.081ZM551.679 584.265C550.594 584.265 549.618 584.088 548.753 583.735C547.889 583.382 547.152 582.892 546.543 582.266C545.942 581.63 545.479 580.893 545.153 580.055C544.835 579.208 544.676 578.299 544.676 577.328V576.798C544.676 575.695 544.835 574.693 545.153 573.793C545.47 572.884 545.92 572.103 546.503 571.45C547.085 570.797 547.783 570.294 548.595 569.941C549.407 569.588 550.302 569.411 551.282 569.411C552.297 569.411 553.193 569.583 553.969 569.928C554.746 570.263 555.395 570.74 555.915 571.357C556.436 571.975 556.829 572.717 557.094 573.581C557.358 574.437 557.491 575.386 557.491 576.428V577.897H546.265V575.488H554.049V575.223C554.031 574.667 553.925 574.159 553.731 573.701C553.537 573.233 553.237 572.862 552.831 572.589C552.425 572.306 551.9 572.165 551.255 572.165C550.735 572.165 550.28 572.28 549.892 572.509C549.512 572.73 549.195 573.047 548.939 573.462C548.692 573.868 548.506 574.354 548.383 574.918C548.259 575.483 548.197 576.11 548.197 576.798V577.328C548.197 577.928 548.277 578.484 548.436 578.996C548.603 579.508 548.846 579.953 549.164 580.333C549.49 580.704 549.879 580.995 550.329 581.207C550.788 581.41 551.308 581.511 551.891 581.511C552.623 581.511 553.285 581.37 553.877 581.088C554.477 580.796 554.998 580.368 555.439 579.803L557.2 581.63C556.899 582.072 556.493 582.495 555.982 582.901C555.479 583.307 554.87 583.638 554.155 583.894C553.44 584.141 552.615 584.265 551.679 584.265ZM566.612 569.676V572.191H558.404V569.676H566.612ZM560.602 566.155H564.11V579.87C564.11 580.293 564.167 580.62 564.282 580.849C564.397 581.079 564.569 581.233 564.798 581.313C565.028 581.392 565.301 581.432 565.619 581.432C565.849 581.432 566.06 581.419 566.255 581.392C566.449 581.366 566.612 581.339 566.744 581.313L566.758 583.934C566.466 584.031 566.135 584.11 565.765 584.172C565.403 584.234 564.992 584.265 564.534 584.265C563.748 584.265 563.06 584.132 562.468 583.868C561.877 583.594 561.418 583.157 561.092 582.557C560.765 581.948 560.602 581.145 560.602 580.148V566.155Z" fill="#140903"/>
<defs>
<linearGradient id="paint0_linear_27_44" x1="22.5" y1="24.5" x2="759.5" y2="952.5" gradientUnits="userSpaceOnUse">
<stop offset="0.0417486" stop-color="#47251C" stop-opacity="0.95"/>
<stop offset="0.463542" stop-color="#EDEBEB" stop-opacity="0.56"/>
<stop offset="0.5625" stop-color="#EDEBEB" stop-opacity="0.562508"/>
<stop offset="0.943407" stop-color="#47251C" stop-opacity="0.95"/>
</linearGradient>
</defs>
</svg>
